<svg width="30" height="30" viewBox="0 0 30 30" fill="none" xmlns="http://www.w3.org/2000/svg">
<path fill-rule="evenodd" clip-rule="evenodd" d="M18.1239 16.2954C17.3331 15.5047 17.3444 14.2192 18.1489 13.4424L29.2806 2.69459C29.6779 2.31098 29.689 1.67791 29.3054 1.2806V1.2806C28.9218 0.883281 28.2887 0.872175 27.8914 1.25579L16.684 12.0767C15.8992 12.8345 14.652 12.8235 13.8806 12.0521L4.12134 2.29289C3.73082 1.90237 3.09766 1.90237 2.70713 2.29289V2.29289C2.31661 2.68342 2.31661 3.31658 2.70713 3.7071L12.392 13.3919C13.1827 14.1827 13.1714 15.4682 12.3669 16.2449L0.330217 27.8666C-0.0670972 28.2502 -0.0782037 28.8833 0.30541 29.2806V29.2806C0.689024 29.6779 1.32209 29.689 1.71941 29.3054L13.8318 17.6106C14.6166 16.8529 15.8639 16.8638 16.6352 17.6352L28.2929 29.2929C28.6834 29.6834 29.3166 29.6834 29.7071 29.2929V29.2929C30.0977 28.9024 30.0977 28.2692 29.7071 27.8787L18.1239 16.2954Z" fill="white"/>
</svg>
