<svg width="344" height="61" viewBox="0 0 344 61" fill="none" xmlns="http://www.w3.org/2000/svg">
<path d="M331.193 0H12.2298C5.47548 0 0 3.96276 0 8.85107V51.4972C0 56.3855 5.47548 60.3482 12.2298 60.3482H331.193C337.948 60.3482 343.423 56.3855 343.423 51.4972V8.85107C343.423 3.96276 337.948 0 331.193 0Z" fill="#FFA323"/>
<path d="M331.193 0H197.639C190.885 0 185.409 3.96276 185.409 8.85107V51.4972C185.409 56.3855 190.885 60.3482 197.639 60.3482H331.193C337.948 60.3482 343.423 56.3855 343.423 51.4972V8.85107C343.423 3.96276 337.948 0 331.193 0Z" fill="#E6E0D8"/>
<path d="M48.7714 30.4805C46.3561 29.7862 44.596 28.9355 43.491 27.9283C42.3958 26.9113 41.8482 25.6596 41.8482 24.1733C41.8482 22.4913 42.518 21.1028 43.8577 20.0076C45.2071 18.9026 46.9575 18.3501 49.1088 18.3501C50.5756 18.3501 51.8811 18.6337 53.0252 19.2008C54.179 19.768 55.0689 20.5503 55.6947 21.5477C56.3303 22.5451 56.6481 23.6354 56.6481 24.8186H53.8172C53.8172 23.5279 53.4065 22.5158 52.5851 21.7824C51.7637 21.0392 50.6049 20.6676 49.1088 20.6676C47.7202 20.6676 46.6348 20.9756 45.8525 21.5917C45.08 22.198 44.6938 23.0438 44.6938 24.1293C44.6938 24.9996 45.0605 25.7378 45.7938 26.3441C46.537 26.9406 47.7936 27.4882 49.5635 27.9869C51.3432 28.4856 52.7318 29.0381 53.7292 29.6444C54.7364 30.2409 55.4796 30.9401 55.9588 31.7419C56.4477 32.5438 56.6922 33.4874 56.6922 34.5729C56.6922 36.3037 56.0174 37.6922 54.668 38.7386C53.3185 39.7751 51.5144 40.2934 49.2555 40.2934C47.7887 40.2934 46.4197 40.0147 45.1485 39.4573C43.8772 38.8901 42.8945 38.1176 42.2002 37.1397C41.5157 36.1619 41.1734 35.052 41.1734 33.8101H44.0044C44.0044 35.1009 44.4786 36.1228 45.4271 36.8757C46.3855 37.6189 47.6616 37.9905 49.2555 37.9905C50.7418 37.9905 51.8811 37.6873 52.6731 37.0811C53.4652 36.4748 53.8612 35.6485 53.8612 34.6022C53.8612 33.5559 53.4945 32.7491 52.7611 32.182C52.0277 31.605 50.6978 31.0379 48.7714 30.4805ZM75.3498 18.6434V33.1647C75.34 35.1791 74.7044 36.8268 73.443 38.1078C72.1913 39.3888 70.4898 40.1076 68.3385 40.264L67.5905 40.2934C65.2534 40.2934 63.3905 39.6626 62.002 38.4012C60.6134 37.1397 59.9093 35.404 59.8898 33.1941V18.6434H62.6767V33.1061C62.6767 34.6511 63.1021 35.8539 63.9528 36.7144C64.8035 37.5651 66.0161 37.9905 67.5905 37.9905C69.1844 37.9905 70.4018 37.5651 71.2428 36.7144C72.0935 35.8636 72.5189 34.6657 72.5189 33.1207V18.6434H75.3498ZM82.6105 31.6393V40H79.7942V18.6434H87.6709C90.008 18.6434 91.8366 19.2399 93.1567 20.4329C94.4866 21.6259 95.1516 23.2052 95.1516 25.1707C95.1516 27.2438 94.5013 28.8426 93.2007 29.9671C91.9099 31.0819 90.0569 31.6393 87.6416 31.6393H82.6105ZM82.6105 29.3364H87.6709C89.1768 29.3364 90.3307 28.9844 91.1325 28.2803C91.9344 27.5664 92.3353 26.5397 92.3353 25.2C92.3353 23.9288 91.9344 22.9118 91.1325 22.1491C90.3307 21.3863 89.2306 20.9903 87.8323 20.961H82.6105V29.3364ZM110.817 30.1285H101.561V37.6971H112.313V40H98.7452V18.6434H112.166V20.961H101.561V27.8256H110.817V30.1285ZM123.651 31.3606H118.635V40H115.804V18.6434H122.874C125.28 18.6434 127.128 19.191 128.419 20.2862C129.719 21.3815 130.369 22.9754 130.369 25.068C130.369 26.3979 130.008 27.5567 129.284 28.5443C128.57 29.532 127.573 30.2702 126.292 30.7592L131.308 39.824V40H128.287L123.651 31.3606ZM118.635 29.0577H122.962C124.36 29.0577 125.47 28.6959 126.292 27.9723C127.123 27.2486 127.538 26.2806 127.538 25.068C127.538 23.7479 127.142 22.7358 126.35 22.0317C125.568 21.3277 124.434 20.9708 122.947 20.961H118.635V29.0577Z" fill="white"/>
<path d="M233.235 20.961H226.37V40H223.569V20.961H216.719V18.6434H233.235V20.961ZM244.236 31.3606H239.219V40H236.388V18.6434H243.458C245.864 18.6434 247.712 19.191 249.003 20.2862C250.303 21.3815 250.954 22.9754 250.954 25.068C250.954 26.3979 250.592 27.5567 249.868 28.5443C249.155 29.532 248.157 30.2702 246.876 30.7592L251.893 39.824V40H248.871L244.236 31.3606ZM239.219 29.0577H243.546C244.945 29.0577 246.055 28.6959 246.876 27.9723C247.707 27.2486 248.123 26.2806 248.123 25.068C248.123 23.7479 247.727 22.7358 246.935 22.0317C246.152 21.3277 245.018 20.9708 243.532 20.961H239.219V29.0577ZM257.936 40H255.119V18.6434H257.936V40ZM270.169 36.2597L276.271 18.6434H279.351L271.43 40H268.937L261.031 18.6434H264.096L270.169 36.2597ZM285.247 40H282.431V18.6434H285.247V40ZM302.468 34.4262H293.52L291.511 40H288.606L296.762 18.6434H299.226L307.396 40H304.507L302.468 34.4262ZM294.371 32.1086H301.632L297.994 22.1197L294.371 32.1086Z" fill="#0000FF"/>
</svg>
