<svg width="549" height="551" viewBox="0 0 549 551" fill="none" xmlns="http://www.w3.org/2000/svg">
<ellipse cx="274.021" cy="275.161" rx="268.753" ry="269.916" transform="rotate(1.12947 274.021 275.161)" fill="#233884"/>
<mask id="path-2-inside-1" fill="white">
<path fill-rule="evenodd" clip-rule="evenodd" d="M269.451 506.96C397.381 509.482 503.134 407.819 505.656 279.889C508.178 151.958 406.515 46.2056 278.585 43.6834C150.654 41.1612 44.9015 142.825 42.3793 270.755C39.8571 398.685 141.52 504.438 269.451 506.96ZM269.712 493.723C390.332 496.101 490.042 400.247 492.42 279.627C494.798 159.007 398.944 59.2976 278.324 56.9195C157.704 54.5414 57.9943 150.395 55.6163 271.015C53.2382 391.636 149.092 491.345 269.712 493.723Z"/>
</mask>
<path fill-rule="evenodd" clip-rule="evenodd" d="M269.451 506.96C397.381 509.482 503.134 407.819 505.656 279.889C508.178 151.958 406.515 46.2056 278.585 43.6834C150.654 41.1612 44.9015 142.825 42.3793 270.755C39.8571 398.685 141.52 504.438 269.451 506.96ZM269.712 493.723C390.332 496.101 490.042 400.247 492.42 279.627C494.798 159.007 398.944 59.2976 278.324 56.9195C157.704 54.5414 57.9943 150.395 55.6163 271.015C53.2382 391.636 149.092 491.345 269.712 493.723Z" fill="white"/>
<path d="M504.578 279.867C502.068 407.202 396.807 508.393 269.472 505.882L269.43 508.038C397.955 510.572 504.2 408.435 506.734 279.91L504.578 279.867ZM278.563 44.7613C405.898 47.2717 507.089 152.532 504.578 279.867L506.734 279.91C509.268 151.384 407.131 45.1395 278.606 42.6056L278.563 44.7613ZM43.4571 270.776C45.9676 143.441 151.228 42.2508 278.563 44.7613L278.606 42.6056C150.08 40.0717 43.8354 142.208 41.3015 270.734L43.4571 270.776ZM269.472 505.882C142.137 503.372 40.9467 398.111 43.4571 270.776L41.3015 270.734C38.7675 399.259 140.904 505.504 269.43 508.038L269.472 505.882ZM491.342 279.606C488.976 399.631 389.758 495.012 269.733 492.645L269.691 494.801C390.906 497.191 491.108 400.864 493.498 279.649L491.342 279.606ZM278.303 57.9973C398.328 60.3637 493.709 159.581 491.342 279.606L493.498 279.649C495.888 158.433 399.561 58.2315 278.345 55.8417L278.303 57.9973ZM56.6941 271.037C59.0604 151.012 158.278 55.631 278.303 57.9973L278.345 55.8417C157.13 53.4519 56.9282 149.779 54.5384 270.994L56.6941 271.037ZM269.733 492.645C149.709 490.279 54.3277 391.061 56.6941 271.037L54.5384 270.994C52.1486 392.21 148.476 492.411 269.691 494.801L269.733 492.645Z" fill="black" mask="url(#path-2-inside-1)"/>
<mask id="path-4-inside-2" fill="white">
<path fill-rule="evenodd" clip-rule="evenodd" d="M269.842 487.105C386.807 489.411 483.495 396.462 485.801 279.497C488.107 162.532 395.158 65.8439 278.193 63.5379C161.228 61.2319 64.54 154.181 62.234 271.146C59.928 388.111 152.877 484.799 269.842 487.105ZM270.081 475.003C380.362 477.178 471.525 389.54 473.699 279.259C475.874 168.977 388.236 77.8143 277.954 75.64C167.673 73.4658 76.5101 161.104 74.3359 271.385C72.1616 381.666 159.8 472.829 270.081 475.003Z"/>
</mask>
<path fill-rule="evenodd" clip-rule="evenodd" d="M269.842 487.105C386.807 489.411 483.495 396.462 485.801 279.497C488.107 162.532 395.158 65.8439 278.193 63.5379C161.228 61.2319 64.54 154.181 62.234 271.146C59.928 388.111 152.877 484.799 269.842 487.105ZM270.081 475.003C380.362 477.178 471.525 389.54 473.699 279.259C475.874 168.977 388.236 77.8143 277.954 75.64C167.673 73.4658 76.5101 161.104 74.3359 271.385C72.1616 381.666 159.8 472.829 270.081 475.003Z" fill="#0A0000"/>
<path d="M484.853 279.478C482.557 395.919 386.302 488.452 269.861 486.157L269.824 488.054C387.312 490.37 484.433 397.004 486.75 279.516L484.853 279.478ZM278.174 64.4864C394.615 66.7821 487.148 163.037 484.853 279.478L486.75 279.516C489.066 162.027 395.7 64.9058 278.212 62.5894L278.174 64.4864ZM63.1825 271.165C65.4782 154.724 161.733 62.1907 278.174 64.4864L278.212 62.5894C160.723 60.2731 63.6019 153.639 61.2855 271.127L63.1825 271.165ZM269.861 486.157C153.42 483.861 60.8868 387.606 63.1825 271.165L61.2855 271.127C58.9692 388.616 152.335 485.737 269.824 488.054L269.861 486.157ZM472.751 279.24C470.587 388.997 379.857 476.219 270.099 474.055L270.062 475.952C380.867 478.137 472.463 390.082 474.648 279.277L472.751 279.24ZM277.936 76.5885C387.693 78.7524 474.915 169.483 472.751 279.24L474.648 279.277C476.832 168.472 388.778 76.8761 277.973 74.6915L277.936 76.5885ZM75.2844 271.404C77.4483 161.646 168.178 74.4246 277.936 76.5885L277.973 74.6915C167.168 72.507 75.5719 160.561 73.3874 271.366L75.2844 271.404ZM270.099 474.055C160.342 471.891 73.1204 381.161 75.2844 271.404L73.3874 271.366C71.2028 382.171 159.257 473.767 270.062 475.952L270.099 474.055Z" fill="black" mask="url(#path-4-inside-2)"/>
<mask id="path-6-inside-3" fill="white">
<path fill-rule="evenodd" clip-rule="evenodd" d="M96.7322 146.031L270.215 440.921L455.683 153.417L96.7322 146.031ZM133.458 166.458L270.682 399.716L417.386 172.301L133.458 166.458Z"/>
</mask>
<path d="M270.215 440.921L268.512 441.923L270.138 444.686L271.875 441.992L270.215 440.921ZM96.7322 146.031L96.7728 144.056L93.2356 143.983L95.0296 147.032L96.7322 146.031ZM455.683 153.417L457.343 154.488L459.261 151.515L455.723 151.442L455.683 153.417ZM270.682 399.716L268.979 400.717L270.604 403.48L272.342 400.786L270.682 399.716ZM133.458 166.458L133.498 164.483L129.961 164.41L131.755 167.46L133.458 166.458ZM417.386 172.301L419.046 173.372L420.964 170.398L417.427 170.326L417.386 172.301ZM271.918 439.92L98.4349 145.029L95.0296 147.032L268.512 441.923L271.918 439.92ZM454.023 152.346L268.555 439.851L271.875 441.992L457.343 154.488L454.023 152.346ZM96.6916 148.006L455.642 155.392L455.723 151.442L96.7728 144.056L96.6916 148.006ZM272.385 398.714L135.16 165.456L131.755 167.46L268.979 400.717L272.385 398.714ZM415.726 171.23L269.022 398.645L272.342 400.786L419.046 173.372L415.726 171.23ZM133.417 168.433L417.346 174.276L417.427 170.326L133.498 164.483L133.417 168.433Z" fill="black" mask="url(#path-6-inside-3)"/>
<mask id="path-8-inside-4" fill="white">
<path fill-rule="evenodd" clip-rule="evenodd" d="M171.266 188.55L272.325 360.331L380.364 192.853L171.266 188.55ZM192.66 200.449L272.597 336.328L358.056 203.852L192.66 200.449Z"/>
</mask>
<path fill-rule="evenodd" clip-rule="evenodd" d="M171.266 188.55L272.325 360.331L380.364 192.853L171.266 188.55ZM192.66 200.449L272.597 336.328L358.056 203.852L192.66 200.449Z" fill="#1937A4"/>
<path d="M272.325 360.331L271.333 360.915L272.279 362.524L273.292 360.955L272.325 360.331ZM171.266 188.55L171.29 187.399L169.229 187.357L170.274 189.133L171.266 188.55ZM380.364 192.853L381.331 193.476L382.449 191.744L380.388 191.702L380.364 192.853ZM272.597 336.328L271.605 336.911L272.551 338.521L273.564 336.952L272.597 336.328ZM192.66 200.449L192.683 199.298L190.623 199.256L191.668 201.032L192.66 200.449ZM358.056 203.852L359.023 204.476L360.14 202.744L358.079 202.702L358.056 203.852ZM273.316 359.748L172.258 187.966L170.274 189.133L271.333 360.915L273.316 359.748ZM379.397 192.229L271.358 359.708L273.292 360.955L381.331 193.476L379.397 192.229ZM171.242 189.7L380.341 194.003L380.388 191.702L171.29 187.399L171.242 189.7ZM273.588 335.744L193.651 199.865L191.668 201.032L271.605 336.911L273.588 335.744ZM357.089 203.229L271.63 335.704L273.564 336.952L359.023 204.476L357.089 203.229ZM192.636 201.599L358.032 205.003L358.079 202.702L192.683 199.298L192.636 201.599Z" fill="black" mask="url(#path-8-inside-4)"/>
<path d="M308.985 150.477L381.991 92.0676L393.391 106.682L336.552 151.021L308.985 150.477Z" fill="black"/>
<path d="M252.04 149.809L188.69 87.2515L175.5 101.34L223.183 149.24L252.04 149.809Z" fill="#1D0505"/>
<path d="M386.232 258.416L480.236 273.603L479.95 288.071L378.716 271.601L386.232 258.416Z" fill="black"/>
<path d="M169.606 265.318L73.5808 309.933L65.6814 297.794L162.566 253.364L169.606 265.318Z" fill="black"/>
<path d="M332.685 339.644L442.127 396.754L431.964 409.078L322.822 354.568L332.685 339.644Z" fill="black"/>
<path d="M130.958 413.696L211.028 337.926L219.671 351.261L142.049 427.697L130.958 413.696Z" fill="black"/>
</svg>
