<svg width="31" height="31" viewBox="0 0 31 31" fill="none" xmlns="http://www.w3.org/2000/svg">
<path fill-rule="evenodd" clip-rule="evenodd" d="M15.5 31C24.0604 31 31 24.0604 31 15.5C31 6.93959 24.0604 0 15.5 0C6.93959 0 0 6.93959 0 15.5C0 24.0604 6.93959 31 15.5 31ZM15.4997 28.4167C22.6334 28.4167 28.4164 22.6337 28.4164 15.5C28.4164 8.36636 22.6334 2.58337 15.4997 2.58337C8.36601 2.58337 2.58302 8.36636 2.58302 15.5C2.58302 22.6337 8.36601 28.4167 15.4997 28.4167Z" fill="#911616"/>
<path fill-rule="evenodd" clip-rule="evenodd" d="M17.058 16.514C16.5387 15.9954 16.5553 15.1488 17.0946 14.6509L24.0557 8.2245C24.3178 7.98255 24.3341 7.57396 24.0921 7.31188C23.8502 7.0498 23.4416 7.03348 23.1795 7.27543L16.1027 13.8087C15.5935 14.2787 14.8042 14.2632 14.3138 13.7736L8.20668 7.67502C7.95429 7.42299 7.54537 7.42328 7.29333 7.67567C7.0413 7.92806 7.04158 8.33697 7.29397 8.58901L13.2897 14.5763C13.809 15.0949 13.7924 15.9415 13.2531 16.4393L7.31484 21.9215C7.05276 22.1635 7.03644 22.5721 7.27839 22.8341C7.52033 23.0962 7.92893 23.1125 8.19101 22.8706L14.245 17.2816C14.7542 16.8115 15.5436 16.827 16.0339 17.3167L22.4926 23.7663C22.745 24.0183 23.1539 24.0181 23.406 23.7657C23.658 23.5133 23.6577 23.1044 23.4053 22.8523L17.058 16.514Z" fill="#0B0965"/>
</svg>
