<svg width="31" height="31" viewBox="0 0 31 31" fill="none" xmlns="http://www.w3.org/2000/svg">
<path fill-rule="evenodd" clip-rule="evenodd" d="M15.5 31C24.0604 31 31 24.0604 31 15.5C31 6.93959 24.0604 0 15.5 0C6.93959 0 0 6.93959 0 15.5C0 24.0604 6.93959 31 15.5 31ZM15.4997 28.4167C22.6334 28.4167 28.4163 22.6337 28.4163 15.5C28.4163 8.36635 22.6334 2.58336 15.4997 2.58336C8.366 2.58336 2.58301 8.36635 2.58301 15.5C2.58301 22.6337 8.366 28.4167 15.4997 28.4167Z" fill="#911616"/>
<path fill-rule="evenodd" clip-rule="evenodd" d="M12.0504 22.8069L27.6113 8.59903L27.2645 8.21924L11.7445 22.3897L4.45818 12.4539L4.04346 12.758L11.3625 22.7385L11.3217 22.7758L11.6677 23.1547L11.6683 23.1555L11.6684 23.1555L11.6685 23.1556L11.6692 23.1549L12.083 22.8514L12.0504 22.8069Z" fill="#18087B"/>
<path d="M27.6113 8.59903L27.9484 8.96827L28.3177 8.63114L27.9806 8.2619L27.6113 8.59903ZM12.0504 22.8069L11.7132 22.4376L11.3816 22.7404L11.6472 23.1025L12.0504 22.8069ZM27.2645 8.21924L27.6338 7.8821L27.2967 7.51286L26.9274 7.85L27.2645 8.21924ZM11.7445 22.3897L11.3413 22.6854L11.6705 23.1344L12.0816 22.759L11.7445 22.3897ZM4.45818 12.4539L4.86138 12.1582L4.5657 11.755L4.1625 12.0507L4.45818 12.4539ZM4.04346 12.758L3.74778 12.3548L3.34457 12.6505L3.64025 13.0537L4.04346 12.758ZM11.3625 22.7385L11.6996 23.1078L12.0312 22.805L11.7657 22.4428L11.3625 22.7385ZM11.3217 22.7758L10.9846 22.4065L10.6153 22.7437L10.9524 23.1129L11.3217 22.7758ZM11.6677 23.1547L12.0708 22.859L12.055 22.8374L12.037 22.8176L11.6677 23.1547ZM11.6683 23.1555L11.2652 23.4513L11.5614 23.8551L11.9648 23.5582L11.6683 23.1555ZM11.6684 23.1555L12.0391 22.82L11.7359 22.4849L11.3719 22.7528L11.6684 23.1555ZM11.6685 23.1556L11.2977 23.4911L11.6346 23.8633L12.0054 23.5249L11.6685 23.1556ZM11.6692 23.1549L11.3735 22.7517L11.3519 22.7675L11.3322 22.7855L11.6692 23.1549ZM12.083 22.8514L12.3787 23.2546L12.7819 22.9589L12.4862 22.5557L12.083 22.8514ZM27.2742 8.22979L11.7132 22.4376L12.3875 23.1761L27.9484 8.96827L27.2742 8.22979ZM26.8953 8.55637L27.2421 8.93616L27.9806 8.2619L27.6338 7.8821L26.8953 8.55637ZM12.0816 22.759L27.6017 8.58848L26.9274 7.85L11.4073 22.0205L12.0816 22.759ZM4.05498 12.7496L11.3413 22.6854L12.1477 22.0941L4.86138 12.1582L4.05498 12.7496ZM4.33914 13.1612L4.75386 12.8571L4.1625 12.0507L3.74778 12.3548L4.33914 13.1612ZM11.7657 22.4428L4.44666 12.4623L3.64025 13.0537L10.9593 23.0342L11.7657 22.4428ZM11.6588 23.145L11.6996 23.1078L11.0253 22.3693L10.9846 22.4065L11.6588 23.145ZM12.037 22.8176L11.6909 22.4386L10.9524 23.1129L11.2985 23.4919L12.037 22.8176ZM12.0714 22.8598L12.0708 22.859L11.2646 23.4505L11.2652 23.4513L12.0714 22.8598ZM11.3719 22.7528L11.3719 22.7529L11.9648 23.5582L11.9648 23.5581L11.3719 22.7528ZM12.0392 22.82L12.0391 22.82L11.2977 23.491L11.2977 23.4911L12.0392 22.82ZM11.3322 22.7855L11.3315 22.7862L12.0054 23.5249L12.0061 23.5243L11.3322 22.7855ZM11.7873 22.4482L11.3735 22.7517L11.9648 23.5581L12.3787 23.2546L11.7873 22.4482ZM11.6472 23.1025L11.6798 23.1471L12.4862 22.5557L12.4536 22.5112L11.6472 23.1025Z" fill="#150380"/>
</svg>
